<svg xmlns="http://www.w3.org/2000/svg" viewBox="0 0 1200 720" role="img" aria-labelledby="t"><title id="t">Compartiments d’identités numériques</title><defs><linearGradient id="bg" x2="1" y2="1"><stop stop-color="#17100b"/><stop offset="1" stop-color="#24190f"/></linearGradient><radialGradient id="halo"><stop stop-color="#e8ac68" stop-opacity=".28"/><stop offset="1" stop-color="#e8ac68" stop-opacity="0"/></radialGradient></defs><rect width="1200" height="720" rx="38" fill="url(#bg)"/><circle cx="600" cy="360" r="340" fill="url(#halo)"/><g fill="none" stroke="#72563d" stroke-width="2"><path d="M600 360L274 206M600 360l332-153M600 360L289 536M600 360l326 180" stroke-dasharray="9 12"/></g><g font-family="system-ui" text-anchor="middle"><circle cx="600" cy="360" r="112" fill="#251b12" stroke="#e8ac68" stroke-width="3"/><text x="600" y="347" fill="#f6e7d5" font-size="32" font-weight="700">VOUS</text><text x="600" y="386" fill="#b99a79" font-size="18" letter-spacing="3">MINIMUM COMMUN</text><g transform="translate(130 122)"><rect width="288" height="164" rx="26" fill="#171719" stroke="#7559aa" stroke-width="2"/><circle cx="144" cy="54" r="20" fill="#9a7ad3"/><text x="144" y="104" fill="#f0eafa" font-size="25" font-weight="650">PRIVÉ</text><text x="144" y="134" fill="#9c91aa" font-size="17">mail · proches · santé</text></g><g transform="translate(782 122)"><rect width="288" height="164" rx="26" fill="#11191e" stroke="#4d8dad" stroke-width="2"/><circle cx="144" cy="54" r="20" fill="#66b5dc"/><text x="144" y="104" fill="#e8f5fb" font-size="25" font-weight="650">TRAVAIL</text><text x="144" y="134" fill="#819ba8" font-size="17">nom · réseau · outils</text></g><g transform="translate(130 446)"><rect width="288" height="164" rx="26" fill="#151d18" stroke="#4f9870" stroke-width="2"/><circle cx="144" cy="54" r="20" fill="#69c38f"/><text x="144" y="104" fill="#e4f5eb" font-size="25" font-weight="650">PUBLIC</text><text x="144" y="134" fill="#87a592" font-size="17">publication · vitrine</text></g><g transform="translate(782 446)"><rect width="288" height="164" rx="26" fill="#201511" stroke="#b96f4c" stroke-width="2"/><circle cx="144" cy="54" r="20" fill="#df8b61"/><text x="144" y="104" fill="#faece4" font-size="25" font-weight="650">JETABLE</text><text x="144" y="134" fill="#b99a8b" font-size="17">test · achat · inscription</text></g></g></svg>
